<svg xmlns="http://www.w3.org/2000/svg" xmlns:xlink="http://www.w3.org/1999/xlink" version="1.1" width="500" height="500" viewBox="0 0 500 500">
<defs>
<clipPath id="clip_0">
<path transform="matrix(1,0,0,-1,0,500)" d="M0 500H500V0H0Z"/>
</clipPath>
</defs>
<g id="layer_1" data-name="Layer 1">
<g clip-path="url(#clip_0)">
<path transform="matrix(1,0,0,-1,475.873,258.5361)" d="M0 0C0 5.492-3.112 7.827-9.108 9.108-15.104 10.39-18.766 10.939-18.766 15.104-18.766 18.216-16.431 20.047-11.991 20.047-6.499 20.047-4.714 17.713-4.714 14.555L-4.211 14.051H-1.876L-1.373 14.555C-1.373 20.551-6.316 22.885-12.312 22.885-19.086 22.885-22.473 19.223-22.473 15.058-22.473 10.115-18.812 7.781-12.815 6.729-6.819 5.446-3.707 4.897-3.707-.046-3.707-3.158-5.538-5.538-11.534-5.538-17.026-5.538-19.36-2.426-19.36 1.236L-19.864 1.739H-22.198L-22.701 1.236C-22.701-4.257-18.536-8.422-11.259-8.422-3.661-8.604 0-4.943 0 0M-38.813 19.818C-35.15 19.818-32.771 18.308-31.261 16.294-29.75 14.28-29.155 11.717-29.155 9.658L-29.704 9.108H-47.921L-48.424 9.658C-48.424 11.763-47.829 14.28-46.318 16.294-44.899 18.308-42.474 19.818-38.813 19.818M-38.813 22.931C-47.143 22.931-52.086 16.935-52.086 8.33V7.003C-52.086-1.327-47.921-8.604-38.264-8.604-29.934-8.604-26.82-3.112-26.271 .504L-26.82 1.007H-29.155L-29.704 .504C-30.985-3.158-33.366-5.492-38.034-5.492-45.861-5.492-48.195 1.785-48.195 5.446L-47.646 5.95H-26.043L-25.493 6.499V8.33C-25.539 16.66-30.482 22.931-38.813 22.931M-56.297-7.277V21.649L-56.8 22.153H-59.134L-59.912 21.649V-7.277L-59.409-7.78H-57.074C-57.074-7.826-56.297-7.277-56.297-7.277M-56.297 27.599V31.261L-56.8 31.764H-59.134L-59.912 31.261V27.599L-59.409 27.096H-57.074ZM-79.227 20.047C-76.252 20.047-73.826 18.995-72.179 16.889-70.531 14.784-69.615 11.58-69.615 7.277-69.615 2.976-70.531-.229-72.179-2.334-73.826-4.439-76.252-5.492-79.227-5.492-82.202-5.492-84.628-4.439-86.275-2.334-87.923-.229-88.839 2.976-88.839 7.277-88.839 11.442-87.923 14.646-86.275 16.797-84.628 18.949-82.202 20.047-79.227 20.047M-79.227 22.931C-87.557 22.931-91.997 16.157-91.997 7.323-91.997-1.785-87.832-8.33-79.227-8.33-73.734-8.33-70.896-5.996-69.569-3.387V-3.661C-69.569-11.488-71.4-17.484-78.678-17.484-84.17-17.484-85.955-15.149-86.505-12.037L-87.054-11.488H-89.388L-89.938-12.037C-89.434-16.98-85.772-20.367-78.449-20.367-70.622-20.367-65.68-15.424-65.68-3.433V21.649L-66.229 22.153H-68.06L-68.563 21.649-69.112 17.988H-69.615C-70.852 20.322-73.734 22.931-79.227 22.931M-108.886 19.818C-105.911 19.818-103.348 18.583-101.563 16.386-99.777 14.188-98.725 10.985-98.725 7.095-98.725 3.204-99.777 0-101.563-2.197-103.348-4.394-105.865-5.63-108.886-5.63-111.86-5.63-114.424-4.394-116.209-2.197-117.994 0-119.047 3.204-119.047 7.095-119.047 11.122-117.994 14.326-116.209 16.523-114.47 18.628-111.906 19.818-108.886 19.818M-108.886 22.656C-116.712 22.656-122.708 17.164-122.708 7.003-122.708-3.158-116.713-8.604-108.886-8.604-101.06-8.604-95.109-3.158-95.109 7.003-95.109 17.209-101.104 22.656-108.886 22.656M-126.873-7.277V33.87L-127.651 34.373H-129.985L-130.489 33.87V-7.277L-129.985-7.78H-127.651ZM-148.751 19.818C-145.776 19.818-143.213 18.583-141.428 16.386-139.643 14.188-138.59 10.985-138.59 7.095-138.59 3.204-139.643 0-141.428-2.197-143.213-4.394-145.776-5.63-148.751-5.63-151.727-5.63-154.289-4.394-156.074-2.197-157.859 0-158.912 3.204-158.912 7.095-158.912 11.122-157.859 14.326-156.074 16.523-154.289 18.628-151.771 19.818-148.751 19.818M-148.751 22.656C-156.578 22.656-162.573 17.164-162.573 7.003-162.573-3.158-156.578-8.604-148.751-8.604-140.925-8.604-134.929-3.158-134.929 7.003-134.975 17.209-140.971 22.656-148.751 22.656M-166.235-7.277V10.939C-166.235 18.766-170.4 22.931-177.174 22.931-181.339 22.931-185.001 21.1-186.831 17.988H-187.335L-187.839 21.649-188.342 22.153H-190.173L-190.676 21.649V-7.277L-190.173-7.78H-187.839L-187.335-7.277V9.108C-187.335 15.882-184.223 20.047-177.678 20.047-172.734 20.047-169.851 16.935-169.851 10.939V-7.277L-169.348-7.78H-166.738ZM-196.946-7.277V10.939C-196.946 18.766-201.111 22.931-207.886 22.931-212.051 22.931-215.712 21.1-217.543 17.988H-218.047V33.595L-218.824 34.373H-221.159L-221.662 33.87V-7.277L-221.159-7.78H-218.824L-218.321-7.277V9.108C-218.321 15.882-215.209 20.047-208.664 20.047-203.721 20.047-200.837 16.935-200.837 10.939V-7.277L-200.334-7.78H-197.999ZM-249.078 7.277C-249.078 15.607-244.913 20.047-238.917 20.047-232.921 20.047-230.587 16.386-229.809 12.77L-229.306 12.267H-226.697L-226.193 12.77C-226.697 18.766-231.686 22.931-238.963 22.931-246.79 22.931-252.786 17.988-252.786 7.323-252.786-3.615-246.79-8.33-238.963-8.33-231.686-8.33-226.972-4.165-226.193 1.831L-226.697 2.334H-229.031L-229.535 1.831C-230.038-1.831-232.647-5.446-238.643-5.446-244.639-5.446-249.078-1.281-249.078 7.277M-268.347 19.818C-264.686 19.818-262.306 18.308-260.795 16.294-259.285 14.28-258.69 11.717-258.69 9.658L-259.193 9.108H-277.41L-277.959 9.658C-277.959 11.763-277.364 14.28-275.854 16.294-274.389 18.308-271.963 19.818-268.347 19.818M-268.347 22.931C-276.677 22.931-281.621 16.935-281.621 8.33V7.003C-281.621-1.327-277.456-8.604-267.798-8.604-259.468-8.604-256.355-3.112-255.806 .504L-256.31 1.007H-258.644L-259.147 .504C-260.429-3.158-262.809-5.492-267.478-5.492-275.304-5.492-277.639 1.785-277.639 5.446L-277.089 5.95H-255.486L-254.937 6.499V8.33C-255.028 16.935-259.743 22.931-268.347 22.931M-275.35 32.039V33.87L-276.128 34.373H-307.389L-307.892 33.87V32.039L-307.389 31.535H-294.116L-293.612 31.032V-7.049L-293.109-7.552H-290.774L-290.271-7.049V30.757L-289.768 31.261H-276.22Z" fill="#177eb9"/>
<path transform="matrix(1,0,0,-1,33.3721,232.21829)" d="M0 0H7.369C8.925 0 10.436-.366 11.809-.961 13.182-1.602 14.463-2.518 15.562-3.662 16.66-4.806 17.53-6.179 18.125-7.735 18.72-9.292 19.086-11.031 19.086-12.861 19.086-14.555 18.766-16.203 18.216-17.759 17.667-19.269 16.797-20.688 15.791-21.878 14.738-23.068 13.502-24.029 12.083-24.716 10.665-25.403 9.063-25.768 7.369-25.768H0ZM52.361 11.122 28.332-7.369C25.86 1.876 17.85 8.65 8.01 8.65H-9.245V-33.87H8.01C17.85-33.87 26.501-27.096 28.332-17.851L52.361-36.341 76.39-17.851V-33.87H103.485V-25.219H85.635V8.65H75.749V-7.369L52.956-25.86 48.013-21.558 59.135-12.907 70.852-3.662 64.078 1.876 41.284-15.974 36.341-11.671 59.135 5.583ZM134.288-25.265V-33.87H107.193V8.65H117.033V-25.219Z" fill="#177eb9"/>
</g>
</g>
</svg>
