<svg xmlns="http://www.w3.org/2000/svg" xmlns:xlink="http://www.w3.org/1999/xlink" viewBox="0,0,256,256" width="32px" height="32px"><g fill="#636363" fill-rule="nonzero" stroke="none" stroke-width="1" stroke-linecap="butt" stroke-linejoin="miter" stroke-miterlimit="10" stroke-dasharray="" stroke-dashoffset="0" font-family="none" font-weight="none" font-size="none" text-anchor="none" style="mix-blend-mode: normal"><g transform="scale(8,8)"><path d="M16,3c-6.04687,0 -11,4.95313 -11,11v6c0,1.29297 0.84375,2.39453 2,2.8125v0.1875c0,2.74609 2.25391,5 5,5h1.28125c0.34766,0.59766 0.98047,1 1.71875,1h2c1.10156,0 2,-0.89844 2,-2c0,-1.10156 -0.89844,-2 -2,-2h-2c-0.73828,0 -1.37109,0.40234 -1.71875,1h-1.28125c-1.65625,0 -3,-1.34375 -3,-3h2v-9h-4c0,-4.95312 4.04688,-9 9,-9c4.95313,0 9,4.04688 9,9h-4v9h3c1.64453,0 3,-1.35547 3,-3v-6c0,-6.04687 -4.95312,-11 -11,-11zM7,16h2v5h-1c-0.55469,0 -1,-0.44531 -1,-1zM23,16h2v4c0,0.55469 -0.44531,1 -1,1h-1z"></path></g></g></svg>