<svg xmlns="http://www.w3.org/2000/svg" xmlns:xlink="http://www.w3.org/1999/xlink" viewBox="0,0,256,256" width="22px" height="22px"><g fill="#636363" fill-rule="nonzero" stroke="none" stroke-width="1" stroke-linecap="butt" stroke-linejoin="miter" stroke-miterlimit="10" stroke-dasharray="" stroke-dashoffset="0" font-family="none" font-weight="none" font-size="none" text-anchor="none" style="mix-blend-mode: normal"><g transform="scale(5.12,5.12)"><path d="M1.8125,2c-0.03125,0.00781 -0.0625,0.01953 -0.09375,0.03125c-0.97266,0.13672 -1.71875,0.96094 -1.71875,1.96875c0,1.10547 0.89453,2 2,2c1.10547,0 2,-0.89453 2,-2h4.65625c1.24609,0 1.89453,0.25781 2.375,0.6875c0.47266,0.42578 0.85547,1.14453 1.1875,2.25l8,32.28125c0.30078,1.14453 0.60156,2.32422 1.4375,3.28125c0.34766,0.39844 0.78516,0.72266 1.3125,0.96875c-0.58594,0.69531 -0.96875,1.55859 -0.96875,2.53125c0,2.19922 1.80078,4 4,4c2.19922,0 4,-1.80078 4,-4c0,-0.73437 -0.21484,-1.40625 -0.5625,-2h6.125c-0.34766,0.59375 -0.5625,1.26563 -0.5625,2c0,2.19922 1.80078,4 4,4c2.19922,0 4,-1.80078 4,-4c0,-1.02734 -0.41797,-1.94531 -1.0625,-2.65625c0.11328,-0.30469 0.06641,-0.64844 -0.11719,-0.91406c-0.1875,-0.26953 -0.49219,-0.42969 -0.82031,-0.42969h-15.28125c-1.54297,0 -2.17187,-0.32812 -2.59375,-0.8125c-0.41797,-0.48047 -0.67187,-1.32031 -0.96875,-2.4375v-0.03125l-0.6875,-2.71875h18.34375c0.41797,0 0.79688,-0.26172 0.9375,-0.65625l7.1875,-19c0.11719,-0.30469 0.07422,-0.64844 -0.11328,-0.91797c-0.1875,-0.26953 -0.49609,-0.42969 -0.82422,-0.42578h-30.71875l-2.125,-8.53125c0,-0.01953 0,-0.04297 0,-0.0625c-0.38281,-1.28906 -0.87891,-2.40625 -1.78125,-3.21875c-0.90234,-0.8125 -2.17187,-1.1875 -3.71875,-1.1875h-6.65625c-0.03125,0 -0.0625,0 -0.09375,0c-0.03125,0 -0.0625,0 -0.09375,0zM16.78125,17h28.78125l-6.4375,17h-18.125zM26,44c1.11719,0 2,0.88281 2,2c0,1.11719 -0.88281,2 -2,2c-1.11719,0 -2,-0.88281 -2,-2c0,-1.11719 0.88281,-2 2,-2zM39,44c1.11719,0 2,0.88281 2,2c0,1.11719 -0.88281,2 -2,2c-1.11719,0 -2,-0.88281 -2,-2c0,-1.11719 0.88281,-2 2,-2z"></path></g></g></svg>